<svg xmlns="http://www.w3.org/2000/svg" viewBox="0 0 16 16">
  <!-- White background -->
  <rect width="16" height="16" fill="#ffffff"/>

  <!-- Letter G -->
  <!-- Row 2 -->
  <rect x="2" y="2" width="1" height="1" fill="#1a1a1a"/>
  <rect x="3" y="2" width="1" height="1" fill="#1a1a1a"/>
  <rect x="4" y="2" width="1" height="1" fill="#1a1a1a"/>
  <rect x="5" y="2" width="1" height="1" fill="#1a1a1a"/>
  <!-- Row 3-6 left side -->
  <rect x="1" y="3" width="1" height="1" fill="#1a1a1a"/>
  <rect x="2" y="3" width="1" height="1" fill="#1a1a1a"/>
  <rect x="1" y="4" width="1" height="1" fill="#1a1a1a"/>
  <rect x="2" y="4" width="1" height="1" fill="#1a1a1a"/>
  <rect x="1" y="5" width="1" height="1" fill="#1a1a1a"/>
  <rect x="2" y="5" width="1" height="1" fill="#1a1a1a"/>
  <rect x="1" y="6" width="1" height="1" fill="#1a1a1a"/>
  <rect x="2" y="6" width="1" height="1" fill="#1a1a1a"/>
  <!-- Row 7-8 with horizontal bar -->
  <rect x="1" y="7" width="1" height="1" fill="#1a1a1a"/>
  <rect x="2" y="7" width="1" height="1" fill="#1a1a1a"/>
  <rect x="3" y="7" width="1" height="1" fill="#1a1a1a"/>
  <rect x="4" y="7" width="1" height="1" fill="#1a1a1a"/>
  <rect x="5" y="7" width="1" height="1" fill="#1a1a1a"/>
  <rect x="1" y="8" width="1" height="1" fill="#1a1a1a"/>
  <rect x="2" y="8" width="1" height="1" fill="#1a1a1a"/>
  <rect x="3" y="8" width="1" height="1" fill="#1a1a1a"/>
  <rect x="4" y="8" width="1" height="1" fill="#1a1a1a"/>
  <rect x="5" y="8" width="1" height="1" fill="#1a1a1a"/>
  <!-- Row 9-11 bottom right -->
  <rect x="1" y="9" width="1" height="1" fill="#1a1a1a"/>
  <rect x="2" y="9" width="1" height="1" fill="#1a1a1a"/>
  <rect x="4" y="9" width="1" height="1" fill="#1a1a1a"/>
  <rect x="5" y="9" width="1" height="1" fill="#1a1a1a"/>
  <rect x="1" y="10" width="1" height="1" fill="#1a1a1a"/>
  <rect x="2" y="10" width="1" height="1" fill="#1a1a1a"/>
  <rect x="4" y="10" width="1" height="1" fill="#1a1a1a"/>
  <rect x="5" y="10" width="1" height="1" fill="#1a1a1a"/>
  <rect x="1" y="11" width="1" height="1" fill="#1a1a1a"/>
  <rect x="2" y="11" width="1" height="1" fill="#1a1a1a"/>
  <rect x="4" y="11" width="1" height="1" fill="#1a1a1a"/>
  <rect x="5" y="11" width="1" height="1" fill="#1a1a1a"/>
  <!-- Row 12 bottom -->
  <rect x="2" y="12" width="1" height="1" fill="#1a1a1a"/>
  <rect x="3" y="12" width="1" height="1" fill="#1a1a1a"/>
  <rect x="4" y="12" width="1" height="1" fill="#1a1a1a"/>
  <rect x="5" y="12" width="1" height="1" fill="#1a1a1a"/>

  <!-- Letter N -->
  <!-- Row 2 -->
  <rect x="8" y="2" width="1" height="1" fill="#1a1a1a"/>
  <rect x="9" y="2" width="1" height="1" fill="#1a1a1a"/>
  <rect x="12" y="2" width="1" height="1" fill="#1a1a1a"/>
  <rect x="13" y="2" width="1" height="1" fill="#1a1a1a"/>
  <!-- Row 3-12 left side -->
  <rect x="7" y="3" width="1" height="1" fill="#1a1a1a"/>
  <rect x="8" y="3" width="1" height="1" fill="#1a1a1a"/>
  <rect x="9" y="3" width="1" height="1" fill="#1a1a1a"/>
  <rect x="7" y="4" width="1" height="1" fill="#1a1a1a"/>
  <rect x="8" y="4" width="1" height="1" fill="#1a1a1a"/>
  <rect x="9" y="4" width="1" height="1" fill="#1a1a1a"/>
  <rect x="7" y="5" width="1" height="1" fill="#1a1a1a"/>
  <rect x="8" y="5" width="1" height="1" fill="#1a1a1a"/>
  <rect x="9" y="5" width="1" height="1" fill="#1a1a1a"/>
  <rect x="7" y="6" width="1" height="1" fill="#1a1a1a"/>
  <rect x="8" y="6" width="1" height="1" fill="#1a1a1a"/>
  <rect x="9" y="6" width="1" height="1" fill="#1a1a1a"/>
  <rect x="7" y="7" width="1" height="1" fill="#1a1a1a"/>
  <rect x="8" y="7" width="1" height="1" fill="#1a1a1a"/>
  <rect x="9" y="7" width="1" height="1" fill="#1a1a1a"/>
  <rect x="7" y="8" width="1" height="1" fill="#1a1a1a"/>
  <rect x="8" y="8" width="1" height="1" fill="#1a1a1a"/>
  <rect x="9" y="8" width="1" height="1" fill="#1a1a1a"/>
  <rect x="7" y="9" width="1" height="1" fill="#1a1a1a"/>
  <rect x="8" y="9" width="1" height="1" fill="#1a1a1a"/>
  <rect x="9" y="9" width="1" height="1" fill="#1a1a1a"/>
  <rect x="7" y="10" width="1" height="1" fill="#1a1a1a"/>
  <rect x="8" y="10" width="1" height="1" fill="#1a1a1a"/>
  <rect x="9" y="10" width="1" height="1" fill="#1a1a1a"/>
  <rect x="7" y="11" width="1" height="1" fill="#1a1a1a"/>
  <rect x="8" y="11" width="1" height="1" fill="#1a1a1a"/>
  <rect x="9" y="11" width="1" height="1" fill="#1a1a1a"/>
  <!-- Row 3-12 right side -->
  <rect x="11" y="3" width="1" height="1" fill="#1a1a1a"/>
  <rect x="12" y="3" width="1" height="1" fill="#1a1a1a"/>
  <rect x="13" y="3" width="1" height="1" fill="#1a1a1a"/>
  <rect x="11" y="4" width="1" height="1" fill="#1a1a1a"/>
  <rect x="12" y="4" width="1" height="1" fill="#1a1a1a"/>
  <rect x="13" y="4" width="1" height="1" fill="#1a1a1a"/>
  <rect x="11" y="5" width="1" height="1" fill="#1a1a1a"/>
  <rect x="12" y="5" width="1" height="1" fill="#1a1a1a"/>
  <rect x="13" y="5" width="1" height="1" fill="#1a1a1a"/>
  <rect x="11" y="6" width="1" height="1" fill="#1a1a1a"/>
  <rect x="12" y="6" width="1" height="1" fill="#1a1a1a"/>
  <rect x="13" y="6" width="1" height="1" fill="#1a1a1a"/>
  <rect x="11" y="7" width="1" height="1" fill="#1a1a1a"/>
  <rect x="12" y="7" width="1" height="1" fill="#1a1a1a"/>
  <rect x="13" y="7" width="1" height="1" fill="#1a1a1a"/>
  <rect x="11" y="8" width="1" height="1" fill="#1a1a1a"/>
  <rect x="12" y="8" width="1" height="1" fill="#1a1a1a"/>
  <rect x="13" y="8" width="1" height="1" fill="#1a1a1a"/>
  <rect x="11" y="9" width="1" height="1" fill="#1a1a1a"/>
  <rect x="12" y="9" width="1" height="1" fill="#1a1a1a"/>
  <rect x="13" y="9" width="1" height="1" fill="#1a1a1a"/>
  <rect x="11" y="10" width="1" height="1" fill="#1a1a1a"/>
  <rect x="12" y="10" width="1" height="1" fill="#1a1a1a"/>
  <rect x="13" y="10" width="1" height="1" fill="#1a1a1a"/>
  <rect x="11" y="11" width="1" height="1" fill="#1a1a1a"/>
  <rect x="12" y="11" width="1" height="1" fill="#1a1a1a"/>
  <rect x="13" y="11" width="1" height="1" fill="#1a1a1a"/>
  <!-- Row 12 -->
  <rect x="8" y="12" width="1" height="1" fill="#1a1a1a"/>
  <rect x="9" y="12" width="1" height="1" fill="#1a1a1a"/>
  <rect x="12" y="12" width="1" height="1" fill="#1a1a1a"/>
  <rect x="13" y="12" width="1" height="1" fill="#1a1a1a"/>
</svg>
